<?xml version="1.0" encoding="UTF-8" standalone="no"?>
<!-- Created with Inkscape (http://www.inkscape.org/) -->

<svg
   xmlns:dc="http://purl.org/dc/elements/1.1/"
   xmlns:cc="http://creativecommons.org/ns#"
   xmlns:rdf="http://www.w3.org/1999/02/22-rdf-syntax-ns#"
   xmlns:svg="http://www.w3.org/2000/svg"
   xmlns="http://www.w3.org/2000/svg"
   xmlns:sodipodi="http://sodipodi.sourceforge.net/DTD/sodipodi-0.dtd"
   xmlns:inkscape="http://www.inkscape.org/namespaces/inkscape"
   width="424.01343mm"
   height="424.00818mm"
   viewBox="0 0 424.01343 424.00818"
   version="1.1"
   id="svg8"
   inkscape:version="0.92.5 (2060ec1f9f, 2020-04-08)"
   sodipodi:docname="relogio.svg">
  <defs
     id="defs2" />
  <sodipodi:namedview
     id="base"
     pagecolor="#ffffff"
     bordercolor="#666666"
     borderopacity="1.0"
     inkscape:pageopacity="0.0"
     inkscape:pageshadow="2"
     inkscape:zoom="0.49497475"
     inkscape:cx="870.50585"
     inkscape:cy="896.60477"
     inkscape:document-units="mm"
     inkscape:current-layer="layer1"
     showgrid="false"
     inkscape:window-width="1920"
     inkscape:window-height="1016"
     inkscape:window-x="0"
     inkscape:window-y="27"
     inkscape:window-maximized="1" />
  <metadata
     id="metadata5">
    <rdf:RDF>
      <cc:Work
         rdf:about="">
        <dc:format>image/svg+xml</dc:format>
        <dc:type
           rdf:resource="http://purl.org/dc/dcmitype/StillImage" />
        <dc:title></dc:title>
      </cc:Work>
    </rdf:RDF>
  </metadata>
  <g
     inkscape:label="Camada 1"
     inkscape:groupmode="layer"
     id="layer1"
     transform="translate(99.434901,70.005656)">
    <path
       style="fill:#1abc9c;fill-opacity:1;stroke-width:0.99999994"
       d="M 792.85938 0.005859375 C 774.5866 -0.038547963 758.25494 0.20971859 749.7793 0.82421875 C 639.05724 8.8517803 537.20467 36.530795 442.03125 84.458984 C 386.8585 112.24332 346.98869 137.79431 298.13281 176.67773 C 258.49596 208.22392 211.68757 255.03997 177.61328 297.21484 C 80.459505 417.46527 19.726846 564.60218 3.5585938 718.89453 C 0.10898115 751.81391 -1.0622481 813.92992 1.0703125 850.89453 C 7.1260983 955.86335 36.028337 1063.8798 83.482422 1158.8945 C 119.31385 1230.6379 160.71097 1289.9304 217.39258 1350.6934 C 257.52016 1393.7105 306.52415 1435.1149 358.36328 1469.8008 C 392.83185 1492.8639 447.28185 1522.3743 484.53125 1538.1797 C 568.77847 1573.927 647.52705 1593.3928 740.03125 1601.3398 C 763.0042 1603.3133 850.92638 1602.7598 873.03125 1600.502 C 910.78204 1596.6459 944.30509 1591.3998 975.71289 1584.4336 C 1095.2155 1557.928 1208.6386 1503.1437 1305.1641 1425.3047 C 1457.1947 1302.7058 1559.2544 1128.3517 1591.9355 935.39453 C 1594.8609 918.12296 1598.6205 889.20004 1600.6465 868.39453 C 1603.1773 842.40491 1603.2216 759.70903 1600.7168 735.89453 C 1596.1903 692.85936 1591.2572 660.51021 1584.541 629.80273 C 1555.2661 495.95466 1495.065 377.17969 1402.6289 270.89453 C 1389.2376 255.49685 1346.6907 213.01739 1330.5312 198.91211 C 1224.6714 106.5091 1101.9035 45.151969 964.53125 15.990234 C 936.77568 10.098215 907.7119 5.7606704 873.00586 2.3339844 C 859.15984 0.96690091 823.314 0.079871604 792.85938 0.005859375 z M 799.125 103.03125 C 889.82822 102.47054 975.08859 118.67734 1060.5312 152.39844 C 1208.5744 210.82567 1337.4087 325.58031 1415.2969 468.39453 C 1459.3736 549.21283 1488.2776 643.99274 1496.5703 734.89453 C 1498.7344 758.61647 1499.6295 822.0648 1498.1367 845.89453 C 1488.864 993.90654 1434.1416 1131.1934 1337.2324 1249.5664 C 1326.4158 1262.7786 1281.1172 1309.0908 1262.9746 1325.4844 C 1233.9295 1351.7296 1194.691 1380.1647 1154.5312 1404.0742 C 1060.5486 1460.0278 950.60995 1492.9088 837.53125 1498.8809 C 789.98018 1501.3922 745.39617 1499.2849 697.53125 1492.2637 C 582.64257 1475.411 467.29024 1426.186 375.53125 1354.8555 C 341.58712 1328.4684 297.94313 1287.2911 273.63672 1258.7207 C 216.3841 1191.4242 175.3404 1122.0361 146.27148 1043.3945 C 97.591283 911.69765 89.924651 768.7631 124.14453 630.89453 C 138.24141 574.09953 161.85743 513.9264 189.28516 464.92383 C 257.86861 342.39213 353.78778 248.43705 477.53125 182.57812 C 550.32892 143.83365 641.10532 115.87599 721.53125 107.42969 C 747.90524 104.6599 773.7281 103.18825 799.125 103.03125 z "
       id="path856"
       transform="matrix(0.26458333,0,0,0.26458333,-99.434901,-70.005656)" />
    <path
       style="fill:#1abc9c;stroke-width:0.26458332;fill-opacity:1"
       d="m 108.36561,322.43074 c -1.95096,-0.0977 -2.17038,-0.16325 -2.32119,-0.69299 -0.0916,-0.32179 -0.24208,-5.13578 -0.33439,-10.69772 -0.1598,-9.62816 -0.14472,-10.1215 0.31462,-10.29779 0.26536,-0.10181 3.34995,-0.19458 6.85465,-0.20609 l 6.37219,-0.021 0.0692,10.69936 c 0.038,5.88465 -0.026,10.79455 -0.14235,10.91088 -0.24959,0.24958 -7.71664,0.46046 -10.81272,0.30533 z"
       id="path852" />
    <path
       style="fill:#1abc9c;stroke-width:0.26458332;fill-opacity:1"
       d="m 24.662951,299.56638 c -2.67095,-1.44513 -7.1245,-4.09541 -7.92321,-4.71506 l -0.64717,-0.50208 0.5135,-1.13874 c 0.72097,-1.59882 8.27313,-14.76425 9.3082,-16.22665 0.46994,-0.66398 1.0618,-1.20722 1.31524,-1.20722 0.46184,0 6.80397,3.68001 9.68293,5.61848 l 1.53386,1.0328 -0.98614,1.7676 c -3.89025,6.97299 -9.89222,16.45021 -10.41596,16.44698 -0.21828,-0.003 -1.28984,-0.48562 -2.38125,-1.07611 z"
       id="path850" />
    <path
       style="fill:#1abc9c;stroke-width:0.26458332;fill-opacity:1"
       d="m 196.68334,299.12066 c -2.61543,-3.85141 -9.56885,-16.02822 -9.56329,-16.74725 0.003,-0.21013 2.43337,-1.82832 5.45703,-3.63128 5.20566,-3.10406 5.47677,-3.2317 5.95181,-2.8018 0.52583,0.47585 0.63513,0.65839 6.23861,10.41964 1.9631,3.41973 3.7937,6.60841 4.06797,7.08596 l 0.49866,0.86823 -1.64965,1.06902 c -2.64153,1.71178 -8.46535,4.95396 -9.23137,5.13919 -0.63095,0.15259 -0.81127,0.01 -1.76977,-1.40171 z"
       id="path848" />
    <path
       style="fill:#1abc9c;stroke-width:0.26458332;fill-opacity:1"
       d="m 264.24316,236.26418 c -0.58209,-0.33753 -2.60615,-1.48264 -4.49792,-2.54471 -7.14446,-4.01103 -12.56771,-7.35954 -12.56771,-7.7598 0,-0.48155 6.12921,-11.0372 6.40882,-11.0372 0.29728,0 2.81225,1.33921 6.29118,3.35004 10.36143,5.98898 12.17083,7.11391 12.17083,7.56685 0,1.20907 -5.74669,11.04694 -6.4495,11.04101 -0.16354,-0.003 -0.77362,-0.27866 -1.3557,-0.61619 z"
       id="path846" />
    <path
       style="fill:#1abc9c;stroke-width:0.26458332;fill-opacity:1"
       d="m -42.298799,234.56778 c -1.38823,-2.14524 -4.9228,-8.9862 -4.72336,-9.1418 0.19877,-0.1551 9.43986,-5.4632 14.00039,-8.04188 2.39804,-1.35594 4.48164,-2.42533 4.63021,-2.37644 0.29634,0.0975 3.36406,5.1611 5.33314,8.80288 l 1.24706,2.30642 -0.69766,0.55433 c -0.77209,0.61344 -11.04616,6.49623 -15.02712,8.60433 -1.39455,0.73848 -2.73809,1.34268 -2.98563,1.34268 -0.27086,0 -0.97847,-0.8165 -1.77703,-2.05052 z"
       id="path844" />
    <path
       style="fill:#1abc9c;stroke-width:0.26458332;fill-opacity:1"
       d="m -65.022369,148.58064 c -1.36737,-0.0561 -2.31957,-0.21621 -2.44334,-0.41095 -0.27987,-0.44033 -0.25696,-11.87531 0.0247,-12.3198 0.18476,-0.29159 2.23409,-0.36614 10.91001,-0.39687 l 10.68252,-0.0378 v 6.61458 6.61458 l -8.46667,0.0141 c -4.65667,0.008 -9.47491,-0.0273 -10.7072,-0.0778 z"
       id="path840" />
    <path
       style="fill:#1abc9c;stroke-width:0.26458332;fill-opacity:1"
       d="m 270.9487,144.71816 c -0.05,-2.08664 -0.05,-5.00367 -2e-5,-6.48229 l 0.0909,-2.6884 h 10.82313 10.82312 v 6.48229 6.48229 h -10.82306 -10.82313 z"
       id="path838" />
    <path
       style="fill:#1abc9c;stroke-width:0.26458332;fill-opacity:1"
       d="m -29.989629,68.162115 c -7.92881,-4.104538 -17.04106,-9.370757 -17.0458,-9.851235 -0.007,-0.686559 4.77995,-9.191217 5.91745,-10.513631 l 0.58672,-0.682104 1.68754,0.851871 c 2.02021,1.019799 13.38494,7.535061 15.4686,8.867965 0.80927,0.517687 1.47141,1.032288 1.47141,1.143558 0,0.189392 -4.58724,8.42463 -5.72977,10.286366 l -0.52019,0.84764 z"
       id="path836" />
    <path
       style="fill:#1abc9c;stroke-width:0.26458332;fill-opacity:1"
       d="m 252.79567,68.277155 c -2.01203,-3.389493 -5.61814,-9.939549 -5.61814,-10.204659 0,-0.42762 2.39641,-1.950887 9.12813,-5.802241 8.45605,-4.837896 9.11759,-5.166381 9.60308,-4.768414 0.88368,0.724366 6.40421,10.024727 6.40421,10.789055 0,0.135607 -0.62508,0.643647 -1.38906,1.128977 -2.92913,1.860762 -17.02732,9.717172 -17.43729,9.717172 -0.0993,0 -0.41018,-0.38695 -0.69093,-0.85989 z"
       id="path834" />
    <path
       style="fill:#1abc9c;stroke-width:0.26458332;fill-opacity:1"
       d="m 24.707291,5.1740312 c -5.44615,-9.262443 -8.59686,-15.071188 -8.42197,-15.5269622 0.24703,-0.643739 9.88267,-6.239126 10.72998,-6.230866 0.24136,0.0024 1.07873,1.005105 1.93328,2.315105 2.17396,3.332591 7.20065,11.7735372 8.35417,14.02852024 l 0.98624,1.92798196 -0.66146,0.510883 c -1.98517,1.533269 -10.11594,6.084192 -10.87012,6.084192 -0.12219,0 -1.04475,-1.398984 -2.05012,-3.108854 z"
       id="path832" />
    <path
       style="fill:#1abc9c;stroke-width:0.26458332;fill-opacity:1"
       d="m 194.94849,6.7000712 c -1.44081,-0.879589 -3.52441,-2.093264 -4.63021,-2.697052 -1.1058,-0.603789 -2.33622,-1.323435 -2.73426,-1.599215 l -0.72371,-0.501415 0.82211,-1.63839796 c 0.93935,-1.87203304 2.06291,-3.84821904 5.06828,-8.91443904 3.27446,-5.5197432 4.92956,-7.9375002 5.43373,-7.9375002 0.47217,0 7.96734,4.180414 9.98894,5.571307 1.06133,0.730213 1.14337,0.861711 0.86598,1.3879762 -0.65595,1.244435 -7.9607,13.783598 -9.16109,15.725708 -0.79213,1.281634 -1.46486,2.081503 -1.78967,2.127917 -0.28625,0.0409 -1.69928,-0.645298 -3.1401,-1.524889 z"
       id="path830" />
    <path
       style="fill:#1abc9c;stroke-width:0.26458332;fill-opacity:1"
       d="m 109.85878,-16.577441 -4.10104,-0.142798 0.0588,-10.439559 c 0.0324,-5.74176 0.11791,-10.593557 0.19013,-10.781771 0.10244,-0.266946 1.55023,-0.342212 6.5827,-0.342212 h 6.45138 l 0.16992,2.182813 c 0.0935,1.200547 0.17064,6.14164 0.17151,10.980208 l 0.002,8.797396 -2.71198,-0.05564 c -1.49159,-0.0306 -4.55745,-0.119898 -6.81302,-0.198437 z"
       id="path826" />
  </g>
</svg>
